<?xml version="1.0" encoding="UTF-8"?>
<svg id="Layer_1" data-name="Layer 1" xmlns="http://www.w3.org/2000/svg" viewBox="0 0 1920 1630.15">
  <defs>
    <style>
      .cls-1, .cls-2 {
        fill: #231f20;
      }

      .cls-2 {
        fill-rule: evenodd;
      }
    </style>
  </defs>
  <path id="path24" class="cls-2" d="M40.96,1529.05l6.18-1.09c7.62-1.23,14.89-2.9,21.79-5.01,6.9-2.04,12.85-5.16,18.01-9.3,5.09-4.07,9.15-9.59,12.2-16.56,3.05-6.9,4.57-15.91,4.57-26.94,0-8.28-1.3-15.39-3.85-21.35-2.54-6.03-6.03-10.9-10.61-14.75-4.5-3.84-10.03-6.68-16.56-8.57-6.46-1.81-13.65-2.76-21.43-2.76-4.06,0-7.62.06-10.6.3-2.98.21-6.69.58-11.04,1.02v203.07H0v-216.87c8.93-.72,18.81-1.23,29.56-1.67,10.82-.43,21.35-.65,31.74-.65,12.57,0,23.6,1.45,32.98,4.29,9.37,2.84,17.06,6.83,23.16,11.98,6.11,5.23,10.68,11.56,13.66,18.96,2.98,7.47,4.43,15.83,4.43,25.19s-1.75,18.96-5.3,27.53c-3.56,8.5-9.08,15.91-16.56,22.15-7.41,6.17-16.85,11.12-28.32,14.74-11.4,3.63-24.98,5.45-40.74,5.45h-1.97l-1.67-9.16ZM290.66,1627.09h-116.42v-217.88h111.55l-2.1,15.91-79.81,1.09v77.13l75.38.86-2.11,13.95-73.28,1.74v90.2l88.89,1.75-2.11,15.25ZM504.55,1628.19l-153.68-169.66h-.58c.3,15.97.51,30.58.8,43.79.15,5.67.3,11.26.37,16.86.06,5.59.15,10.75.21,15.46.06,4.65.15,8.72.21,12.13.06,3.34.06,5.74.06,6.97v73.35h-19.61v-219.19h13l153.89,169.22h.21c-.3-14.89-.5-28.69-.65-41.46,0-5.38-.06-10.82-.15-16.34-.09-5.52-.15-10.75-.21-15.61-.09-4.94-.09-9.3-.09-13.07v-81.06h19.62v218.61h-13.39ZM734.34,1419.67c-7.92,0-15.83,2.17-23.75,6.46-7.99,4.35-16.92,11.54-27.02,21.65-2.84,2.83-5.88,6.02-9.22,9.51-3.35,3.56-6.83,7.26-10.39,11.19-3.63,3.92-7.27,7.91-10.97,12.06-3.71,4.06-7.19,8.06-10.61,11.91,5.52,9.73,11.11,19.54,16.85,29.34,5.74,9.88,11.48,19.32,17.28,28.47,5.82,9.15,11.77,17.72,17.72,25.71,6.03,7.99,12.06,14.88,18.09,20.77,6.02,5.88,12.06,10.53,18.16,13.94,6.02,3.42,12.13,5.08,18.23,5.08h2.54v9.66c-4.8,1.31-9.37,2.25-13.58,2.9-4.29.65-9.66.95-16.13.95s-13-1.6-19.03-4.8c-6.02-3.2-11.84-7.55-17.5-13.14-5.67-5.6-11.19-12.13-16.56-19.54-5.37-7.49-10.67-15.47-15.9-24.04-5.24-8.57-10.46-17.43-15.62-26.65-5.16-9.22-10.46-18.3-15.83-27.23-.95,1.16-2.4,2.76-4.22,4.72-1.89,1.96-3.7,4.07-5.67,6.17-1.89,2.1-3.7,4.07-5.37,5.96-1.75,1.81-2.91,3.2-3.63,4v92.38h-29.63v-217.88h29.63v104.22c2.68-3.2,5.88-7.05,9.59-11.48,3.62-4.35,7.55-9,11.76-13.94,4.14-4.87,8.42-9.87,12.85-15.1,4.36-5.16,8.64-10.1,12.71-14.75,4.14-4.72,8.06-9.08,11.69-13.07,3.7-4.07,6.9-7.48,9.58-10.17,5.23-5.23,9.95-9.52,14.24-12.92,4.21-3.42,8.42-6.11,12.64-7.99,4.14-1.96,8.5-3.26,12.93-4.06,4.5-.81,9.58-1.17,15.4-1.17,2.68,0,5.01.15,7.05.43,1.95.3,3.48.65,4.65,1.09v9.37h-2.98ZM777.49,1627.09v-217.88h29.63v217.88h-29.63ZM926.66,1627.09v-217.88h29.63v201.32h82.79l-2.11,16.56h-110.32ZM1215.64,1627.09l-27.3-79.97-84.1,1.09-29.27,78.87h-21.71l86.5-216.07,25.56-7.47,80.97,223.55h-30.65ZM1183.91,1532.96l-36.25-101.75-37.98,101.75h74.23ZM1443.41,1550.32c0,10.9-1.89,21.21-5.74,30.87-3.85,9.66-9.52,18.09-17.14,25.34-7.55,7.19-16.99,12.93-28.17,17.22-11.19,4.29-24.19,6.39-38.93,6.39-12.2,0-23.17-1.39-32.97-4.07-9.81-2.68-18.16-7.05-25.21-13.07-6.97-6.03-12.42-13.94-16.13-23.75-3.77-9.81-5.66-21.79-5.66-35.95v-144.09h28.76v148.24c0,10.89,1.17,19.89,3.49,27.01,2.39,7.04,5.81,12.71,10.24,16.85,4.5,4.21,10.03,7.12,16.7,8.86,6.69,1.67,14.46,2.54,23.24,2.54,10.75,0,20.34-1.09,28.76-3.26,8.36-2.26,14.74-5.6,19.17-10.17,3.78-4.07,6.61-9.81,8.5-17.21,1.82-7.33,2.76-15.83,2.76-25.49v-147.36h28.32v141.11ZM1658.9,1419.67c-7.92,0-15.83,2.17-23.75,6.46-7.99,4.35-16.92,11.54-27.02,21.65-2.84,2.83-5.88,6.02-9.22,9.51-3.35,3.56-6.83,7.26-10.39,11.19-3.63,3.92-7.26,7.91-10.96,12.06-3.71,4.06-7.19,8.06-10.61,11.91,5.52,9.73,11.11,19.54,16.85,29.34,5.74,9.88,11.48,19.32,17.28,28.47,5.81,9.15,11.77,17.72,17.72,25.71,6.03,7.99,12.06,14.88,18.09,20.77,6.02,5.88,12.06,10.53,18.16,13.94,6.03,3.42,12.13,5.08,18.23,5.08h2.54v9.66c-4.8,1.31-9.37,2.25-13.58,2.9-4.29.65-9.66.95-16.13.95s-12.99-1.6-19.03-4.8c-6.03-3.2-11.84-7.55-17.5-13.14-5.66-5.6-11.18-12.13-16.56-19.54-5.37-7.49-10.67-15.47-15.9-24.04-5.24-8.57-10.46-17.43-15.61-26.65-5.16-9.22-10.46-18.3-15.83-27.23-.95,1.16-2.4,2.76-4.22,4.72-1.89,1.96-3.7,4.07-5.66,6.17-1.89,2.1-3.7,4.07-5.37,5.96-1.75,1.81-2.91,3.2-3.63,4v92.38h-29.63v-217.88h29.63v104.22c2.68-3.2,5.88-7.05,9.59-11.48,3.63-4.35,7.55-9,11.76-13.94,4.14-4.87,8.42-9.87,12.85-15.1,4.35-5.16,8.64-10.1,12.71-14.75,4.14-4.72,8.06-9.08,11.69-13.07,3.7-4.07,6.9-7.48,9.58-10.17,5.23-5.23,9.95-9.52,14.24-12.92,4.21-3.42,8.42-6.11,12.64-7.99,4.14-1.96,8.5-3.26,12.93-4.06,4.5-.81,9.58-1.17,15.39-1.17,2.68,0,5.01.15,7.05.43,1.96.3,3.48.65,4.65,1.09v9.37h-2.98ZM1831.24,1627.09l-27.3-79.97-84.1,1.09-29.28,78.87h-21.71l86.5-216.07,25.56-7.47,80.97,223.55h-30.65ZM1799.51,1532.96l-36.24-101.75-37.98,101.75h74.23ZM1890.37,1627.09v-217.88h29.63v217.88h-29.63Z"/>
  <g>
    <path class="cls-1" d="M1397.02,436.87l-153.62,153.62-262.54-262.24,153.62-153.91L960.15,0l-174.63,174.34,153.62,153.62-262.54,262.54-153.62-153.62-174.34,174.34,174.34,174.63,153.62-153.62,262.54,262.24-153.62,153.62,174.33,174.63,174.63-174.63-153.62-153.62,262.54-262.24,153.62,153.62,174.34-174.63-174.34-174.34ZM522.98,744.11l-132.6-132.9,132.6-132.6,132.9,132.6-132.9,132.9ZM827.25,174.34l132.9-132.6,132.6,132.6-132.6,132.9h-.3l-132.6-132.9ZM1092.75,1048.08l-132.9,132.6-132.6-132.6,132.6-132.6,132.9,132.6ZM959.85,873.75l-262.24-262.54,262.24-262.24h.3l262.24,262.24-262.54,262.54ZM1264.12,611.21l132.9-132.6,132.6,132.6-132.6,132.6-132.9-132.6Z"/>
    <path class="cls-1" d="M1241.38,889.13h-123.42v-123.41h123.42v123.41ZM1132.75,874.34h93.82v-93.81h-93.82v93.81Z"/>
    <path class="cls-1" d="M803.15,889.13h-123.39v-123.41h123.39v123.41ZM694.56,874.34h93.8v-93.81h-93.8v93.81Z"/>
    <path class="cls-1" d="M803.15,452.69h-123.39v-123.41h123.39v123.41ZM694.56,437.89h93.8v-93.81h-93.8v93.81Z"/>
    <path class="cls-1" d="M1241.38,452.69h-123.42v-123.41h123.42v123.41ZM1132.75,437.89h93.82v-93.81h-93.82v93.81Z"/>
  </g>
</svg>